<?xml version="1.0" standalone="no"?>
<!DOCTYPE svg PUBLIC "-//W3C//DTD SVG 20010904//EN"
 "http://www.w3.org/TR/2001/REC-SVG-20010904/DTD/svg10.dtd">
<svg version="1.0" xmlns="http://www.w3.org/2000/svg"
 width="900.000000pt" height="1278.000000pt" viewBox="0 0 900.000000 1278.000000"
 preserveAspectRatio="xMidYMid meet">

<g transform="translate(0.000000,1278.000000) scale(0.100000,-0.100000)"
fill="#000000" stroke="none">
<path d="M4396 12753 c-20 -40 -73 -87 -131 -118 -27 -15 -64 -36 -82 -48 -17
-12 -68 -44 -113 -72 -237 -145 -495 -318 -640 -429 -69 -53 -201 -149 -295
-214 -229 -159 -425 -310 -513 -396 -85 -83 -136 -156 -222 -321 -78 -148
-144 -254 -258 -412 -48 -67 -121 -170 -162 -229 -41 -59 -99 -137 -128 -172
-65 -80 -146 -237 -166 -323 -8 -35 -22 -127 -31 -204 -9 -77 -23 -158 -31
-180 -7 -22 -14 -48 -14 -57 0 -9 -22 -46 -50 -82 -60 -78 -150 -216 -177
-271 -11 -22 -23 -62 -27 -89 -8 -62 20 -115 82 -156 120 -79 304 -57 495 61
27 16 50 29 52 27 9 -9 -135 -234 -202 -315 -135 -164 -338 -457 -379 -547
-28 -61 -47 -194 -35 -247 20 -85 100 -182 179 -216 47 -20 158 -19 208 2 20
8 39 13 42 11 2 -3 -8 -20 -22 -38 -14 -19 -38 -61 -53 -93 -23 -50 -28 -73
-28 -141 0 -74 4 -87 40 -160 l40 -79 0 -460 c0 -253 4 -472 8 -486 8 -25 6
-28 -30 -39 -107 -34 -157 -102 -157 -211 0 -51 5 -74 24 -103 25 -42 101 -96
134 -96 20 -1 20 -2 4 -14 -32 -24 -20 -63 39 -127 18 -20 25 -39 26 -75 l2
-48 -79 -22 c-107 -30 -129 -53 -134 -140 -8 -127 39 -378 79 -420 24 -25 94
-44 167 -44 l47 -1 -40 -21 c-51 -26 -95 -67 -95 -88 0 -29 36 -51 94 -57 53
-6 68 -14 46 -28 -5 -3 -10 -15 -10 -25 0 -11 -9 -37 -20 -58 -19 -37 -20 -47
-10 -171 5 -72 14 -140 20 -151 5 -10 10 -37 10 -60 0 -27 10 -59 27 -90 l26
-47 -43 -39 c-57 -51 -78 -103 -86 -205 -5 -67 -2 -102 15 -173 12 -49 19 -97
16 -106 -5 -16 27 -124 74 -248 23 -63 30 -137 13 -154 -16 -16 -15 -34 5 -64
19 -30 19 -28 -45 -214 -92 -266 -128 -443 -172 -845 -38 -339 -43 -377 -81
-531 -16 -69 -29 -138 -27 -153 l4 -26 11 25 c6 14 18 68 28 120 25 133 38
146 30 30 -3 -52 -10 -171 -15 -263 -5 -93 -14 -185 -19 -205 -5 -20 -12 -71
-16 -113 -5 -63 -4 -77 8 -82 12 -4 14 -16 10 -46 -5 -34 -2 -42 13 -47 11 -3
27 -10 37 -15 10 -5 23 -7 28 -3 7 4 10 -9 8 -37 -5 -58 21 -61 37 -4 12 46
34 56 49 23 6 -14 17 -22 28 -20 18 3 19 -10 1 -95 -2 -12 0 -24 5 -28 14 -8
31 28 31 68 0 40 13 54 55 59 22 2 32 -2 41 -21 7 -13 17 -27 23 -30 7 -5 7
-18 0 -44 -12 -43 -4 -64 17 -46 8 6 14 17 14 23 0 6 5 28 11 49 10 36 12 38
42 32 18 -4 38 -14 44 -23 18 -22 22 -15 37 64 8 38 18 80 23 93 9 21 11 17
16 -33 3 -32 8 -61 11 -64 3 -3 22 3 41 14 33 17 35 22 35 67 0 41 3 48 16 43
9 -3 18 -6 20 -6 2 0 4 -13 4 -28 0 -40 20 -63 48 -55 21 5 23 10 18 42 -14
78 -12 96 9 96 16 0 21 -8 25 -45 3 -25 9 -51 14 -59 14 -22 36 15 36 61 0 38
0 38 40 38 43 0 45 3 31 62 -5 21 -5 36 -1 33 5 -3 11 -19 15 -35 8 -37 25
-39 25 -3 0 21 3 24 12 15 8 -8 13 -44 13 -97 0 -92 18 -114 23 -29 1 27 5 56
9 64 3 8 5 18 5 22 -7 30 -66 373 -79 455 -9 57 -14 105 -11 109 3 3 29 -6 58
-21 28 -14 59 -24 68 -22 15 3 -106 67 -128 67 -4 0 -13 46 -20 103 -6 56 -23
147 -37 202 -24 93 -26 118 -29 347 l-2 247 -35 78 c-28 63 -37 95 -41 163
-13 181 -62 307 -158 401 l-60 59 21 54 c11 29 17 63 14 74 -3 11 2 31 11 44
11 15 14 33 10 54 -6 33 18 91 62 149 74 97 82 188 30 341 -18 54 -45 122 -59
150 -29 56 -94 120 -139 136 -22 8 -27 15 -22 27 17 41 15 59 -13 92 -43 51
-57 84 -49 116 4 15 14 71 21 123 7 52 14 96 14 97 1 1 13 3 29 5 22 2 27 8
25 29 -1 26 -60 119 -75 119 -4 0 -8 14 -8 32 0 24 10 40 40 68 59 54 51 94
-23 109 l-32 7 52 27 c75 39 87 61 85 164 -2 110 -37 318 -60 357 -28 49 -75
68 -149 62 -39 -3 -65 -1 -69 5 -3 6 -6 58 -6 115 0 86 -3 106 -16 113 -13 7
-8 11 23 20 89 24 154 111 155 205 0 88 -48 155 -142 197 -23 10 -28 19 -28
48 0 20 -3 224 -7 453 l-6 417 59 -16 c118 -31 236 18 389 162 33 31 100 91
149 133 49 42 134 116 187 165 54 48 101 87 104 87 4 0 25 -20 46 -44 22 -25
55 -50 75 -56 23 -8 132 -12 314 -13 153 -1 282 -5 286 -10 4 -4 0 -125 -10
-270 -28 -427 -63 -1083 -96 -1827 -6 -140 -13 -278 -16 -306 l-5 -52 -57 -7
c-186 -22 -225 -75 -226 -312 -1 -108 1 -124 20 -150 28 -38 78 -71 128 -84
l41 -11 -78 -23 c-128 -37 -152 -74 -162 -255 -10 -186 19 -239 162 -285 l66
-22 -49 -12 c-73 -19 -113 -41 -129 -71 -19 -38 -36 -181 -37 -325 -1 -102 2
-127 20 -167 25 -57 64 -83 138 -93 30 -3 54 -10 54 -14 0 -4 -26 -15 -57 -25
-129 -40 -153 -82 -153 -263 0 -147 9 -189 47 -225 31 -29 108 -58 153 -58 68
0 60 -13 -42 -64 -156 -77 -171 -117 -129 -322 38 -182 78 -217 255 -218 70
-1 101 -5 104 -14 2 -7 -19 -43 -46 -80 -27 -37 -57 -81 -66 -99 -21 -42 -21
-121 0 -153 27 -40 135 -148 185 -186 76 -55 159 -45 280 37 l56 37 32 -28
c25 -23 31 -37 31 -68 0 -70 36 -167 75 -201 20 -17 37 -31 38 -31 1 0 40 -5
86 -10 100 -11 248 1 283 24 43 28 69 76 91 168 14 58 27 92 37 95 8 3 31 11
50 19 35 15 37 14 133 -35 107 -56 139 -61 203 -32 60 27 183 183 214 273 18
48 -2 101 -67 182 -27 32 -57 69 -67 82 -11 13 -18 26 -15 28 2 3 40 0 84 -5
187 -24 223 9 284 257 37 155 47 236 31 274 -13 31 -68 70 -157 110 -29 13
-53 26 -53 30 0 3 36 10 79 16 44 6 91 18 105 28 55 35 86 145 87 300 0 128
-28 162 -179 217 -65 24 -73 29 -53 35 56 16 127 61 148 93 21 31 23 46 23
165 0 72 -4 147 -10 165 -15 54 -54 87 -132 112 l-71 22 42 13 c23 7 57 23 76
35 59 41 65 61 65 216 -1 204 -25 245 -162 279 l-73 17 75 23 c59 18 84 32
115 64 l40 41 -1 132 c-1 204 -25 257 -134 291 -30 10 -62 20 -70 23 -9 3 8
13 40 25 126 47 146 83 136 244 -9 146 -26 206 -70 239 -19 14 -50 29 -70 32
-53 8 -52 18 6 39 89 33 93 43 96 279 3 186 1 209 -17 250 -23 53 -64 81 -132
90 -53 7 -57 19 -10 28 56 12 120 49 141 82 17 27 20 49 20 143 0 206 -29 264
-148 299 -34 10 -62 20 -61 23 0 3 28 19 62 35 96 47 101 59 102 233 0 131 -2
151 -21 182 -27 47 -73 76 -131 85 -101 14 -93 2 -93 135 l0 117 101 26 c126
33 262 92 393 171 259 156 356 258 657 695 74 107 170 237 214 290 249 298
369 494 429 701 13 47 45 133 71 190 111 246 188 491 244 775 69 352 89 422
152 537 33 59 59 109 59 112 0 20 84 178 100 186 10 6 50 52 88 103 38 50 123
148 188 217 66 69 151 163 190 210 106 127 225 227 422 351 17 12 32 25 32 30
0 4 15 15 33 24 17 8 58 36 89 63 32 26 83 65 115 87 31 22 80 59 107 83 28
23 58 48 66 55 8 6 50 42 94 80 43 38 91 76 105 85 28 18 60 52 61 65 0 4
-1030 7 -2290 7 l-2289 0 -15 -27z m-686 -2953 c0 -11 -231 -264 -253 -277
-15 -9 -5 4 123 160 94 115 130 147 130 117z m822 -486 c78 -26 75 -40 -37
-164 -67 -74 -155 -201 -196 -283 -12 -23 -45 -79 -74 -124 -47 -72 -61 -85
-122 -118 -138 -75 -321 -188 -416 -256 -103 -74 -129 -86 -212 -95 l-50 -5
22 22 c12 12 82 72 155 133 100 84 158 142 236 238 57 71 163 191 237 269 74
77 165 175 202 217 118 135 166 182 188 182 12 0 42 -7 67 -16z m877 -393 c10
-7 1 -24 -38 -79 -29 -39 -85 -129 -126 -199 -60 -105 -81 -133 -117 -155 -23
-15 -44 -25 -46 -23 -2 2 4 18 14 37 21 41 287 428 294 428 3 0 11 -4 19 -9z
m-922 -1099 c57 -78 114 -127 193 -168 48 -24 67 -28 150 -28 l95 -1 3 -110 3
-110 -86 -17 c-98 -18 -142 -46 -170 -104 -15 -33 -17 -56 -12 -164 8 -182 29
-221 143 -257 30 -9 54 -19 53 -22 0 -3 -28 -19 -62 -36 -98 -48 -102 -58
-102 -245 l0 -158 31 -39 c23 -29 46 -43 95 -59 67 -23 68 -21 -11 -38 -41 -9
-88 -43 -107 -78 -15 -28 -18 -57 -17 -203 2 -276 21 -321 144 -347 33 -6 60
-15 60 -18 0 -3 -22 -13 -49 -23 -100 -35 -129 -105 -116 -279 12 -153 47
-206 152 -229 57 -12 93 -29 61 -29 -20 0 -107 -46 -135 -72 -35 -32 -44 -102
-33 -234 12 -133 31 -180 85 -214 20 -12 53 -24 75 -27 48 -7 52 -19 8 -27
-18 -3 -56 -17 -84 -30 -42 -19 -55 -32 -74 -71 -21 -43 -22 -57 -18 -179 6
-189 33 -232 161 -261 l51 -11 -62 -23 c-78 -29 -118 -72 -128 -137 -8 -56 2
-223 16 -276 13 -47 55 -82 122 -103 29 -9 60 -19 67 -21 9 -3 -6 -14 -35 -28
-55 -26 -85 -64 -103 -131 -14 -55 -25 -224 -17 -268 9 -47 57 -92 120 -114
l51 -17 -46 -7 c-67 -10 -106 -34 -129 -79 -40 -78 -92 -280 -97 -377 l-6 -92
36 -36 35 -35 -34 0 c-54 0 -95 -23 -155 -86 -66 -70 -139 -176 -139 -201 0
-10 -3 -28 -6 -40 -6 -22 -6 -22 -51 8 -54 37 -121 49 -252 44 -77 -3 -104 -9
-143 -29 l-48 -25 0 30 c0 44 -29 94 -107 184 -88 102 -122 125 -184 125 -27
0 -49 3 -49 6 0 3 11 19 25 36 21 25 25 40 25 98 0 77 -12 145 -41 237 -23 72
-73 120 -134 130 -41 7 -57 23 -23 23 33 1 99 33 125 61 32 36 43 92 43 218 0
96 -3 122 -21 159 -25 50 -73 86 -141 103 -27 6 -48 15 -48 19 0 4 23 10 50
14 134 18 157 68 161 346 2 91 -1 180 -5 197 -10 45 -49 74 -134 102 l-73 24
73 36 c93 46 105 68 119 222 16 188 -1 231 -114 284 l-68 31 53 13 c65 15 113
46 133 87 34 71 47 302 20 354 -8 15 -26 37 -40 49 -26 20 -43 26 -137 52 -44
12 -48 16 -48 44 0 16 7 165 15 330 8 165 19 399 25 520 31 677 75 1461 86
1542 5 41 6 42 52 48 147 20 470 116 604 179 51 24 122 62 158 84 36 23 66 41
66 42 1 0 24 -31 51 -68z m-2650 -824 c-3 -8 -6 -5 -6 6 -1 11 2 17 5 13 3 -3
4 -12 1 -19z m0 -90 c-3 -7 -5 -2 -5 12 0 14 2 19 5 13 2 -7 2 -19 0 -25z m0
-75 c-3 -10 -5 -2 -5 17 0 19 2 27 5 18 2 -10 2 -26 0 -35z m0 -245 c-2 -35
-3 -7 -3 62 0 69 1 97 3 63 2 -35 2 -91 0 -125z m179 -1992 c-4 -12 -9 -49
-13 -83 -5 -52 -9 -63 -24 -63 -22 0 -26 14 -34 112 l-7 76 42 -10 c36 -9 41
-14 36 -32z m346 -903 c-3 -16 -7 -22 -10 -15 -4 13 4 42 11 42 2 0 2 -12 -1
-27z m-36 -718 c36 -74 77 -238 72 -289 -5 -52 -105 144 -145 283 -18 64 -33
122 -33 130 0 30 71 -54 106 -124z m-433 -142 c-3 -21 -18 -87 -33 -148 -16
-60 -41 -180 -55 -265 -29 -170 -48 -241 -39 -150 15 152 84 491 119 588 9 25
14 11 8 -25z m426 -127 c54 -162 59 -196 37 -236 l-14 -25 -7 40 c-4 22 -16
81 -27 130 -17 79 -48 235 -48 243 0 19 17 -25 59 -152z m81 -113 c0 -34 -20
-16 -39 35 -36 100 -34 123 4 47 19 -38 35 -75 35 -82z m53 -83 c28 -73 33
-135 18 -250 l-7 -55 -8 40 c-4 22 -16 83 -28 135 -11 52 -22 107 -25 122 -6
31 3 78 15 78 4 0 20 -31 35 -70z m-19 -241 c41 -221 60 -348 53 -355 -3 -4
-11 14 -17 37 -6 24 -28 94 -50 154 -21 61 -46 150 -55 199 -15 84 -15 93 1
134 12 33 19 41 25 30 5 -8 24 -98 43 -199z m-643 -90 c-9 -22 -10 -22 -10 -3
-1 11 2 24 6 27 12 12 14 0 4 -24z m643 -184 c8 -62 -8 -40 -18 25 -4 28 -4
41 2 35 5 -5 13 -32 16 -60z m-659 -142 c-10 -72 -21 -48 -14 30 12 113 12
115 17 62 2 -27 1 -69 -3 -92z m709 -88 c17 -97 19 -122 10 -112 -8 8 -34 145
-34 181 0 48 8 26 24 -69z m61 -120 c7 -63 6 -68 -9 -56 -13 11 -16 32 -15
110 1 104 10 85 24 -54z m2003 33 c-20 -12 -48 -10 -53 5 -2 6 -6 30 -9 52
l-6 40 40 -44 c30 -33 37 -47 28 -53z m-633 33 c-3 -12 -11 -19 -16 -16 -5 4
-5 14 2 26 13 26 23 18 14 -10z m-2171 -123 c-8 -68 -23 -86 -17 -21 5 54 10
73 18 73 3 0 3 -24 -1 -52z m580 -35 c5 -57 4 -83 -3 -83 -7 0 -11 32 -11 87
0 47 2 84 4 82 2 -2 7 -41 10 -86z m225 -6 c5 -13 16 -68 25 -122 9 -55 23
-127 31 -160 23 -95 16 -118 -11 -35 -19 58 -74 309 -74 335 0 15 22 2 29 -18z
m-60 -72 c-1 -40 -3 -45 -9 -25 -12 38 -12 109 0 90 5 -8 9 -37 9 -65z m-119
-65 c0 -22 -2 -40 -4 -40 -2 0 -6 18 -8 40 -2 22 0 40 4 40 5 0 8 -18 8 -40z
m150 -52 c0 -21 -3 -29 -10 -22 -5 5 -7 19 -4 32 9 31 14 27 14 -10z m54 -123
c9 -30 19 -61 22 -70 3 -8 2 -15 -4 -15 -11 0 -27 43 -38 103 -9 55 2 45 20
-18z m-177 -37 c-3 -8 -6 -5 -6 6 -1 11 2 17 5 13 3 -3 4 -12 1 -19z m-10
-370 c-3 -8 -6 -5 -6 6 -1 11 2 17 5 13 3 -3 4 -12 1 -19z"/>
</g>
</svg>
